<?xml version="1.0" encoding="utf-8"?>
<!-- Generator: Adobe Illustrator 26.0.1, SVG Export Plug-In . SVG Version: 6.00 Build 0)  -->
<svg version="1.1" id="Layer_1" xmlns="http://www.w3.org/2000/svg" xmlns:xlink="http://www.w3.org/1999/xlink" x="0px" y="0px"
	 viewBox="0 0 283.6 117.1" style="enable-background:new 0 0 283.6 117.1;" xml:space="preserve">
<style type="text/css">
	.st0{fill-rule:evenodd;clip-rule:evenodd;fill:#5F249F;}
</style>
<path class="st0" d="M80,66.5L80,66.5V23.3c0,0,0,0,12.7,0c0,0,0,0,0,59.2c0,0,0,0-10.5,0c0,0,0,0-1.6-6.6c-3.7,6-10.9,7.4-14.9,7.4
	c-15,0-26.7-10.4-26.7-26.7c0,0,0,0,0-33.4c0,0,0,0,12.7,0c0,0,0,0,0,33.4C51.7,71.7,70.3,77.6,80,66.5L80,66.5z M186.4,22.2
	c17.8,0,30.7,13.5,30.7,30.8c0,17.2-13,30.9-30.7,30.9c-17.7,0-30.9-13.7-30.9-30.9C155.5,35.7,168.7,22.2,186.4,22.2L186.4,22.2z
	 M186.4,72.4c9,0,18-6.3,18-19.4c0-13.1-9-19.2-18-19.2c-8.7,0-18.2,6.1-18.2,19.2C168.2,66.1,177.6,72.4,186.4,72.4L186.4,72.4z
	 M272,63.9c0-29.8,0-29.8,0-29.8c11,0,11,0,11,0c0-10.7,0-10.7,0-10.7c-11,0-11,0-11,0c0-16.4,0-16.4,0-16.4
	c-12.2,1.4-12.2,1.4-12.2,1.4c0,15.1,0,15.1,0,15.1c-20.7,0-20.7,0-20.7,0c0-4.4,0-4.4,0-4.4c0-4.2,2.5-7.6,7.8-7.9
	c1.4-0.1,2.8,0.1,4.5,0.5c0-10.7,0-10.7,0-10.7c-2-0.4-3.9-0.5-5.6-0.5c-12-0.1-19.4,6.8-19.4,18.6c0,4.4,0,4.4,0,4.4
	c-8.4,0-8.4,0-8.4,0c-0.1,0-0.1,0-0.1,0c0,10.7,0,10.7,0,10.7c8.4,0,8.4,0,8.4,0c0,48.5,0,48.5,0,48.5c12.6,0,12.6,0,12.6,0
	c0-48.5,0-48.5,0-48.5c20.7,0,20.7,0,20.7,0c0,30.2,0,30.2,0,30.2c0,14.2,9.8,19.8,23.5,18.5c0-11.1,0-11.1,0-11.1
	C274.9,73.1,272,68.6,272,63.9L272,63.9z M113.5,23.3L113.5,23.3H98.7l19.7,29.6L98.4,82.6h13.6L132,52.9L113.5,23.3L113.5,23.3
	L113.5,23.3L113.5,23.3z M155.9,23.3h-13.8l-7.7,11.7l6.6,10.5L155.9,23.3L155.9,23.3L155.9,23.3z M141,60.1l-6.9,10.1l8.2,12.4
	h13.8L141,60.1L141,60.1L141,60.1L141,60.1z M18.7,71c-3,0-5.4-2.4-5.4-5.5c0-57.2,0-57.2,0-57.2C0.4,6.9,0.4,6.9,0.4,6.9
	c0,60,0,60,0,60c0,8.7,7,15.7,15.7,15.7c18.8,0,18.8,0,18.8,0c0-11.7,0-11.7,0-11.7H18.7L18.7,71L18.7,71z"/>
<path d="M11.7,111.9l-1.5-4.2H4.5L3,111.9H0.4l5.6-15h2.7l5.6,15H11.7z M9.6,105.6l-1.4-4.1c-0.1-0.3-0.2-0.7-0.4-1.3
	c-0.2-0.6-0.3-1-0.4-1.3c-0.2,0.8-0.5,1.8-0.8,2.8l-1.4,3.9H9.6z M33.9,104.3c0,2.5-0.7,4.4-2.1,5.7c-1.4,1.3-3.3,2-5.9,2h-4.2v-15
	h4.6c2.4,0,4.2,0.6,5.6,1.9C33.2,100.1,33.9,101.9,33.9,104.3z M31.3,104.3c0-3.6-1.7-5.4-5-5.4h-2.1v10.9h1.7
	C29.5,109.8,31.3,108,31.3,104.3z M48.1,111.9h-2.8l-3.7-6.1l-3.8,6.1h-2.6l5-7.8l-4.6-7.2h2.7l3.5,5.7l3.5-5.7h2.6l-4.7,7.2
	L48.1,111.9z M56.5,98.8c-1.4,0-2.5,0.5-3.3,1.5c-0.8,1-1.2,2.4-1.2,4.1c0,1.8,0.4,3.2,1.2,4.2c0.8,0.9,1.9,1.4,3.4,1.4
	c0.6,0,1.2-0.1,1.8-0.2c0.6-0.1,1.2-0.3,1.9-0.5v2.1c-1.2,0.4-2.5,0.7-4,0.7c-2.2,0-3.9-0.7-5-2c-1.2-1.3-1.8-3.2-1.8-5.7
	c0-1.6,0.3-2.9,0.9-4.1c0.6-1.2,1.4-2.1,2.5-2.7c1.1-0.6,2.3-0.9,3.8-0.9c1.5,0,2.9,0.3,4.2,1l-0.9,2c-0.5-0.2-1-0.4-1.6-0.6
	C57.7,98.9,57.1,98.8,56.5,98.8z M74,111.9h-2.4V99h-4.4v-2.1h11.2V99H74V111.9z M85.4,112.1c-1.8,0-3.1-0.5-4.1-1.5
	c-1-1-1.5-2.4-1.5-4.2c0-1.8,0.5-3.3,1.4-4.4c0.9-1.1,2.2-1.6,3.8-1.6c1.5,0,2.7,0.5,3.5,1.4c0.9,0.9,1.3,2.2,1.3,3.7v1.3h-7.5
	c0,1.1,0.3,1.9,0.9,2.5c0.6,0.6,1.3,0.9,2.4,0.9c0.7,0,1.3-0.1,1.9-0.2c0.6-0.1,1.2-0.3,1.9-0.6v2c-0.6,0.3-1.2,0.5-1.8,0.6
	C86.8,112,86.1,112.1,85.4,112.1z M84.9,102.2c-0.8,0-1.4,0.2-1.8,0.7c-0.5,0.5-0.7,1.2-0.8,2.1h5.1c0-0.9-0.2-1.6-0.7-2.1
	C86.3,102.4,85.7,102.2,84.9,102.2z M97.1,112.1c-1.7,0-3-0.5-3.9-1.5c-0.9-1-1.3-2.4-1.3-4.3c0-1.9,0.5-3.4,1.4-4.4
	c0.9-1,2.3-1.5,4-1.5c1.2,0,2.3,0.2,3.2,0.7l-0.7,1.9c-1-0.4-1.9-0.6-2.5-0.6c-2,0-2.9,1.3-2.9,3.9c0,1.3,0.2,2.2,0.7,2.9
	c0.5,0.6,1.2,1,2.1,1c1.1,0,2.1-0.3,3-0.8v2.1c-0.4,0.3-0.9,0.4-1.4,0.5C98.4,112,97.8,112.1,97.1,112.1z M112.8,111.9h-2.4v-7
	c0-0.9-0.2-1.5-0.5-2c-0.4-0.4-0.9-0.6-1.7-0.6c-1,0-1.8,0.3-2.2,0.9c-0.5,0.6-0.7,1.6-0.7,3v5.6h-2.4V96h2.4v4c0,0.6,0,1.3-0.1,2.1
	h0.2c0.3-0.5,0.8-1,1.4-1.3c0.6-0.3,1.3-0.5,2-0.5c2.7,0,4.1,1.4,4.1,4.1V111.9z M126.1,111.9h-2.4v-7c0-0.9-0.2-1.5-0.5-2
	c-0.4-0.4-0.9-0.6-1.7-0.6c-1,0-1.8,0.3-2.2,0.9c-0.5,0.6-0.7,1.6-0.7,3v5.6h-2.4v-11.3h1.9l0.3,1.5h0.1c0.3-0.5,0.8-1,1.5-1.2
	c0.6-0.3,1.3-0.4,2.1-0.4c2.7,0,4.1,1.4,4.1,4.1V111.9z M139.5,106.2c0,1.8-0.5,3.3-1.4,4.3c-0.9,1-2.3,1.6-4,1.6
	c-1.1,0-2-0.2-2.8-0.7c-0.8-0.5-1.4-1.2-1.9-2.1c-0.4-0.9-0.7-1.9-0.7-3.1c0-1.8,0.5-3.3,1.4-4.3c0.9-1,2.3-1.5,4-1.5
	c1.6,0,2.9,0.5,3.9,1.6C139,103,139.5,104.4,139.5,106.2z M131.3,106.2c0,2.6,1,3.9,2.9,3.9c1.9,0,2.9-1.3,2.9-3.9
	c0-2.6-1-3.9-2.9-3.9c-1,0-1.7,0.3-2.2,1C131.5,104,131.3,105,131.3,106.2z M144.7,111.9h-2.4V96h2.4V111.9z M158.1,106.2
	c0,1.8-0.5,3.3-1.4,4.3c-0.9,1-2.3,1.6-4,1.6c-1.1,0-2-0.2-2.8-0.7c-0.8-0.5-1.4-1.2-1.9-2.1c-0.4-0.9-0.7-1.9-0.7-3.1
	c0-1.8,0.5-3.3,1.4-4.3c0.9-1,2.3-1.5,4-1.5c1.6,0,2.9,0.5,3.9,1.6C157.7,103,158.1,104.4,158.1,106.2z M149.9,106.2
	c0,2.6,1,3.9,2.9,3.9c1.9,0,2.9-1.3,2.9-3.9c0-2.6-1-3.9-2.9-3.9c-1,0-1.7,0.3-2.2,1C150.1,104,149.9,105,149.9,106.2z M170.5,100.6
	v1.3l-1.9,0.4c0.2,0.2,0.3,0.5,0.4,0.9c0.1,0.3,0.2,0.7,0.2,1.1c0,1.2-0.4,2.1-1.2,2.8c-0.8,0.7-1.9,1-3.3,1c-0.4,0-0.7,0-1-0.1
	c-0.5,0.3-0.8,0.7-0.8,1.1c0,0.3,0.1,0.5,0.4,0.6c0.2,0.1,0.7,0.2,1.3,0.2h2c1.2,0,2.2,0.3,2.8,0.8s1,1.3,1,2.3c0,1.3-0.5,2.3-1.6,3
	c-1.1,0.7-2.6,1-4.6,1c-1.5,0-2.7-0.3-3.5-0.8c-0.8-0.5-1.2-1.3-1.2-2.3c0-0.7,0.2-1.3,0.7-1.8c0.4-0.5,1.1-0.8,1.8-1
	c-0.3-0.1-0.6-0.4-0.8-0.7c-0.2-0.3-0.3-0.6-0.3-1c0-0.4,0.1-0.8,0.4-1.1c0.2-0.3,0.6-0.6,1.1-0.9c-0.6-0.3-1.1-0.7-1.4-1.2
	c-0.4-0.6-0.5-1.2-0.5-2c0-1.2,0.4-2.2,1.2-2.9c0.8-0.7,1.9-1,3.3-1c0.3,0,0.7,0,1,0.1c0.4,0,0.6,0.1,0.8,0.1H170.5z M161.6,113.6
	c0,0.5,0.2,0.9,0.7,1.2c0.5,0.3,1.1,0.4,2,0.4c1.3,0,2.3-0.2,2.9-0.6c0.6-0.4,1-0.9,1-1.5c0-0.5-0.2-0.8-0.5-1c-0.4-0.2-1-0.3-2-0.3
	h-1.8c-0.7,0-1.2,0.2-1.6,0.5C161.8,112.7,161.6,113.1,161.6,113.6z M162.6,104.2c0,0.7,0.2,1.3,0.5,1.6c0.4,0.4,0.9,0.6,1.6,0.6
	c1.4,0,2.1-0.7,2.1-2.2c0-0.7-0.2-1.3-0.5-1.7c-0.3-0.4-0.9-0.6-1.6-0.6c-0.7,0-1.2,0.2-1.6,0.6
	C162.8,102.9,162.6,103.5,162.6,104.2z M170.8,100.6h2.6l2.3,6.4c0.3,0.9,0.6,1.8,0.7,2.6h0.1c0.1-0.4,0.2-0.8,0.3-1.4
	c0.2-0.5,1-3.1,2.6-7.6h2.6l-4.8,12.8c-0.9,2.4-2.3,3.5-4.4,3.5c-0.5,0-1.1-0.1-1.6-0.2v-1.9c0.4,0.1,0.8,0.1,1.2,0.1
	c1.2,0,2-0.7,2.4-2l0.4-1.1L170.8,100.6z M195.9,98.8c-1.4,0-2.5,0.5-3.3,1.5c-0.8,1-1.2,2.4-1.2,4.1c0,1.8,0.4,3.2,1.2,4.2
	c0.8,0.9,1.9,1.4,3.4,1.4c0.6,0,1.2-0.1,1.8-0.2c0.6-0.1,1.2-0.3,1.9-0.5v2.1c-1.2,0.4-2.5,0.7-4,0.7c-2.2,0-3.9-0.7-5-2
	c-1.2-1.3-1.8-3.2-1.8-5.7c0-1.6,0.3-2.9,0.9-4.1c0.6-1.2,1.4-2.1,2.5-2.7c1.1-0.6,2.3-0.9,3.8-0.9c1.5,0,2.9,0.3,4.2,1l-0.9,2
	c-0.5-0.2-1-0.4-1.6-0.6C197.1,98.9,196.5,98.8,195.9,98.8z M212.5,106.2c0,1.8-0.5,3.3-1.4,4.3c-0.9,1-2.3,1.6-4,1.6
	c-1.1,0-2-0.2-2.8-0.7c-0.8-0.5-1.4-1.2-1.9-2.1c-0.4-0.9-0.7-1.9-0.7-3.1c0-1.8,0.5-3.3,1.4-4.3c0.9-1,2.3-1.5,4-1.5
	c1.6,0,2.9,0.5,3.9,1.6C212.1,103,212.5,104.4,212.5,106.2z M204.3,106.2c0,2.6,1,3.9,2.9,3.9c1.9,0,2.9-1.3,2.9-3.9
	c0-2.6-1-3.9-2.9-3.9c-1,0-1.7,0.3-2.2,1C204.5,104,204.3,105,204.3,106.2z M224.8,111.9h-2.4v-7c0-0.9-0.2-1.5-0.5-1.9
	c-0.3-0.4-0.8-0.6-1.5-0.6c-0.9,0-1.6,0.3-2,0.9c-0.4,0.6-0.6,1.6-0.6,3v5.6h-2.4v-11.3h1.9l0.3,1.5h0.1c0.3-0.5,0.8-1,1.4-1.2
	c0.6-0.3,1.3-0.4,2-0.4c1.7,0,2.9,0.6,3.5,1.8h0.2c0.3-0.6,0.8-1,1.4-1.3c0.6-0.3,1.3-0.5,2.1-0.5c1.4,0,2.3,0.3,3,1
	c0.6,0.7,0.9,1.7,0.9,3.1v7.4h-2.4v-7c0-0.9-0.2-1.5-0.5-1.9c-0.3-0.4-0.8-0.6-1.5-0.6c-0.9,0-1.6,0.3-2.1,0.9
	c-0.4,0.6-0.6,1.5-0.6,2.7V111.9z M241.1,112.1c-1.4,0-2.5-0.5-3.3-1.5h-0.1c0.1,1,0.1,1.5,0.1,1.7v4.6h-2.4v-16.3h1.9
	c0.1,0.2,0.2,0.7,0.3,1.5h0.1c0.7-1.1,1.9-1.7,3.4-1.7c1.4,0,2.5,0.5,3.3,1.5c0.8,1,1.2,2.5,1.2,4.3c0,1.8-0.4,3.3-1.2,4.3
	C243.6,111.6,242.5,112.1,241.1,112.1z M240.5,102.3c-1,0-1.7,0.3-2.1,0.8c-0.4,0.6-0.7,1.5-0.7,2.7v0.4c0,1.4,0.2,2.4,0.7,3
	c0.4,0.6,1.1,0.9,2.1,0.9c0.8,0,1.5-0.3,1.9-1c0.4-0.7,0.7-1.7,0.7-2.9c0-1.3-0.2-2.2-0.7-2.9C242,102.7,241.4,102.3,240.5,102.3z
	 M255.5,111.9l-0.5-1.6h-0.1c-0.5,0.7-1.1,1.2-1.6,1.4c-0.6,0.2-1.3,0.4-2.1,0.4c-1.1,0-2-0.3-2.6-0.9c-0.6-0.6-0.9-1.4-0.9-2.5
	c0-1.2,0.4-2,1.3-2.6c0.9-0.6,2.2-0.9,4-1l2-0.1v-0.6c0-0.7-0.2-1.3-0.5-1.6c-0.3-0.4-0.9-0.5-1.6-0.5c-0.6,0-1.1,0.1-1.7,0.3
	c-0.5,0.2-1,0.4-1.5,0.6l-0.8-1.7c0.6-0.3,1.3-0.6,2-0.7s1.4-0.3,2.1-0.3c1.4,0,2.5,0.3,3.3,0.9c0.7,0.6,1.1,1.6,1.1,3v7.6H255.5z
	 M251.9,110.2c0.9,0,1.6-0.2,2.1-0.7c0.5-0.5,0.8-1.2,0.8-2.1v-1l-1.5,0.1c-1.1,0-2,0.2-2.5,0.6c-0.5,0.3-0.8,0.9-0.8,1.5
	c0,0.5,0.1,0.9,0.4,1.2C250.8,110.1,251.3,110.2,251.9,110.2z M270.5,111.9h-2.4v-7c0-0.9-0.2-1.5-0.5-2c-0.4-0.4-0.9-0.6-1.7-0.6
	c-1,0-1.8,0.3-2.2,0.9c-0.5,0.6-0.7,1.6-0.7,3v5.6h-2.4v-11.3h1.9l0.3,1.5h0.1c0.3-0.5,0.8-1,1.5-1.2c0.6-0.3,1.3-0.4,2.1-0.4
	c2.7,0,4.1,1.4,4.1,4.1V111.9z M272.1,100.6h2.6l2.3,6.4c0.3,0.9,0.6,1.8,0.7,2.6h0.1c0.1-0.4,0.2-0.8,0.3-1.4
	c0.2-0.5,1-3.1,2.6-7.6h2.6l-4.8,12.8c-0.9,2.4-2.3,3.5-4.4,3.5c-0.5,0-1.1-0.1-1.6-0.2v-1.9c0.4,0.1,0.8,0.1,1.2,0.1
	c1.2,0,2-0.7,2.4-2l0.4-1.1L272.1,100.6z"/>
</svg>
